<?xml version="1.0" encoding="UTF-8"?>
<svg id="Calque_1" data-name="Calque 1" xmlns="http://www.w3.org/2000/svg" viewBox="0 0 178.36 19.48">
  <defs>
    <style>
      .cls-1 {
        fill: #f28b41;
      }

      .cls-2 {
        fill: #fbf4b4;
      }

      .cls-3 {
        fill: #e73d26;
      }

      .cls-4 {
        fill: #fecc5d;
      }

      .cls-5 {
        fill: #e2e2e1;
      }

      .cls-6 {
        fill: #bd1829;
      }
    </style>
  </defs>
  <path class="cls-2" d="M7.29,0h30.96v6.54H7.29c-1.03,0-1.87-.84-1.87-1.87V1.87C5.42.84,6.26,0,7.29,0Z"/>
  <path class="cls-6" d="M138.59,0h30.96v6.54h-30.96c-1.03,0-1.87-.84-1.87-1.87V1.87C136.72.84,137.56,0,138.59,0Z" transform="translate(306.27 6.54) rotate(-180)"/>
  <rect class="cls-4" x="38.25" y="0" width="32.82" height="6.54" transform="translate(109.32 6.54) rotate(-180)"/>
  <rect class="cls-1" x="71.07" y="0" width="32.82" height="6.54" transform="translate(174.97 6.54) rotate(-180)"/>
  <rect class="cls-3" x="103.9" y="0" width="32.82" height="6.54" transform="translate(240.62 6.54) rotate(-180)"/>
  <g>
    <path class="cls-5" d="M35.62,12.93v.5h-3.18l-.23,2.37h.03c.19-.23.42-.4.71-.51.26-.12.54-.17.84-.17.61,0,1.11.19,1.49.57.39.4.59.94.59,1.63,0,.63-.23,1.16-.66,1.58-.42.4-.95.59-1.58.59-.56,0-1.03-.15-1.41-.46-.44-.33-.68-.79-.73-1.37h.55c.04.43.23.77.54,1.02.28.22.63.33,1.05.33.49,0,.89-.16,1.21-.48.31-.32.48-.73.48-1.22,0-.55-.15-.98-.45-1.29-.29-.3-.68-.44-1.18-.44-.32,0-.62.07-.88.22-.27.15-.48.37-.62.64h-.52l.32-3.51h3.64Z"/>
    <path class="cls-5" d="M40.81,13.86c.31.57.47,1.32.47,2.28s-.16,1.7-.47,2.28c-.38.7-.95,1.06-1.73,1.06s-1.35-.36-1.73-1.06c-.31-.58-.47-1.33-.47-2.28s.15-1.71.47-2.28c.38-.71.95-1.06,1.73-1.06s1.35.35,1.73,1.06ZM37.74,14.24c-.2.47-.3,1.11-.3,1.9s.1,1.42.3,1.9c.27.63.72.95,1.34.95s1.06-.32,1.34-.95c.2-.48.31-1.11.31-1.9s-.11-1.43-.31-1.9c-.28-.64-.73-.95-1.34-.95s-1.07.31-1.34.95Z"/>
    <path class="cls-5" d="M46.21,13.86c.31.57.47,1.32.47,2.28s-.16,1.7-.47,2.28c-.38.7-.95,1.06-1.73,1.06s-1.35-.36-1.73-1.06c-.31-.58-.47-1.33-.47-2.28s.15-1.71.47-2.28c.38-.71.95-1.06,1.73-1.06s1.35.35,1.73,1.06ZM43.14,14.24c-.2.47-.3,1.11-.3,1.9s.1,1.42.3,1.9c.27.63.72.95,1.34.95s1.06-.32,1.34-.95c.2-.48.31-1.11.31-1.9s-.11-1.43-.31-1.9c-.28-.64-.73-.95-1.34-.95s-1.07.31-1.34.95Z"/>
  </g>
  <g>
    <path class="cls-5" d="M64.02,12.93v6.43h-.56v-5.74c-.41.45-.93.77-1.54.95v-.56c.3-.09.59-.23.88-.41.29-.19.55-.41.77-.67h.45Z"/>
    <path class="cls-5" d="M69.5,13.86c.31.57.47,1.32.47,2.28s-.16,1.7-.47,2.28c-.38.7-.95,1.06-1.73,1.06s-1.35-.36-1.73-1.06c-.31-.58-.47-1.33-.47-2.28s.15-1.71.47-2.28c.38-.71.95-1.06,1.73-1.06s1.35.35,1.73,1.06ZM66.43,14.24c-.2.47-.3,1.11-.3,1.9s.1,1.42.3,1.9c.27.63.72.95,1.34.95s1.06-.32,1.34-.95c.2-.48.31-1.11.31-1.9s-.11-1.43-.31-1.9c-.28-.64-.73-.95-1.34-.95s-1.07.31-1.34.95Z"/>
    <path class="cls-5" d="M74.9,13.86c.31.57.47,1.32.47,2.28s-.16,1.7-.47,2.28c-.38.7-.95,1.06-1.73,1.06s-1.35-.36-1.73-1.06c-.31-.58-.47-1.33-.47-2.28s.15-1.71.47-2.28c.38-.71.95-1.06,1.73-1.06s1.35.35,1.73,1.06ZM71.83,14.24c-.2.47-.3,1.11-.3,1.9s.1,1.42.3,1.9c.27.63.72.95,1.34.95s1.06-.32,1.34-.95c.2-.48.31-1.11.31-1.9s-.11-1.43-.31-1.9c-.28-.64-.73-.95-1.34-.95s-1.07.31-1.34.95Z"/>
    <path class="cls-5" d="M80.3,13.86c.31.57.47,1.32.47,2.28s-.16,1.7-.47,2.28c-.38.7-.95,1.06-1.73,1.06s-1.35-.36-1.73-1.06c-.31-.58-.47-1.33-.47-2.28s.15-1.71.47-2.28c.38-.71.95-1.06,1.73-1.06s1.35.35,1.73,1.06ZM77.23,14.24c-.2.47-.3,1.11-.3,1.9s.1,1.42.3,1.9c.27.63.72.95,1.34.95s1.06-.32,1.34-.95c.2-.48.31-1.11.31-1.9s-.11-1.43-.31-1.9c-.28-.64-.73-.95-1.34-.95s-1.07.31-1.34.95Z"/>
  </g>
  <g>
    <path class="cls-5" d="M97.11,13.3c.38.33.57.77.57,1.33s-.22,1.06-.64,1.51c-.21.22-.65.56-1.33,1.03-.92.62-1.42,1.18-1.52,1.67h3.5v.5h-4.18c0-.54.21-1.05.64-1.53.26-.3.71-.67,1.35-1.11.56-.4.92-.68,1.09-.86.35-.38.53-.79.53-1.23s-.13-.76-.4-.99c-.26-.23-.61-.35-1.05-.35-.47,0-.84.15-1.11.47-.29.31-.43.77-.43,1.37h-.56c0-.72.2-1.29.59-1.7.38-.41.88-.62,1.51-.62.58,0,1.05.16,1.43.5Z"/>
    <path class="cls-5" d="M102.73,13.86c.31.57.47,1.32.47,2.28s-.16,1.7-.47,2.28c-.38.7-.95,1.06-1.73,1.06s-1.35-.36-1.73-1.06c-.31-.58-.47-1.33-.47-2.28s.15-1.71.47-2.28c.38-.71.95-1.06,1.73-1.06s1.35.35,1.73,1.06ZM99.66,14.24c-.2.47-.3,1.11-.3,1.9s.1,1.42.3,1.9c.27.63.72.95,1.34.95s1.06-.32,1.34-.95c.2-.48.31-1.11.31-1.9s-.11-1.43-.31-1.9c-.28-.64-.73-.95-1.34-.95s-1.07.31-1.34.95Z"/>
    <path class="cls-5" d="M108.13,13.86c.31.57.47,1.32.47,2.28s-.16,1.7-.47,2.28c-.38.7-.95,1.06-1.73,1.06s-1.35-.36-1.73-1.06c-.31-.58-.47-1.33-.47-2.28s.15-1.71.47-2.28c.38-.71.95-1.06,1.73-1.06s1.35.35,1.73,1.06ZM105.06,14.24c-.2.47-.3,1.11-.3,1.9s.1,1.42.3,1.9c.27.63.72.95,1.34.95s1.06-.32,1.34-.95c.2-.48.31-1.11.31-1.9s-.11-1.43-.31-1.9c-.28-.64-.73-.95-1.34-.95s-1.07.31-1.34.95Z"/>
    <path class="cls-5" d="M113.53,13.86c.31.57.47,1.32.47,2.28s-.16,1.7-.47,2.28c-.38.7-.95,1.06-1.73,1.06s-1.35-.36-1.73-1.06c-.31-.58-.47-1.33-.47-2.28s.15-1.71.47-2.28c.38-.71.95-1.06,1.73-1.06s1.35.35,1.73,1.06ZM110.46,14.24c-.2.47-.3,1.11-.3,1.9s.1,1.42.3,1.9c.27.63.72.95,1.34.95s1.06-.32,1.34-.95c.2-.48.31-1.11.31-1.9s-.11-1.43-.31-1.9c-.28-.64-.73-.95-1.34-.95s-1.07.31-1.34.95Z"/>
  </g>
  <g>
    <path class="cls-5" d="M129.42,13.27c.36.32.54.74.54,1.26,0,.74-.35,1.22-1.04,1.46.37.12.66.31.86.57s.32.58.32.95c0,.58-.21,1.05-.6,1.42-.4.36-.93.55-1.57.55-.58,0-1.05-.15-1.43-.45-.47-.36-.72-.91-.77-1.63h.56c.03.55.22.96.58,1.25.29.23.64.35,1.06.35.5,0,.89-.14,1.2-.42.29-.28.43-.63.43-1.05s-.14-.72-.41-.95c-.27-.23-.63-.34-1.09-.34h-.57v-.45h.51c.46,0,.81-.11,1.06-.31.23-.22.36-.51.36-.91s-.13-.68-.37-.92c-.26-.23-.62-.35-1.07-.35s-.81.13-1.07.39c-.27.25-.43.6-.49,1.07h-.55c.05-.6.28-1.08.67-1.43.37-.34.85-.51,1.44-.51s1.08.15,1.45.47Z"/>
    <path class="cls-5" d="M135.25,12.93v.5h-3.18l-.23,2.37h.03c.19-.23.42-.4.71-.51.26-.12.54-.17.84-.17.61,0,1.11.19,1.49.57.39.4.59.94.59,1.63,0,.63-.23,1.16-.66,1.58-.42.4-.95.59-1.58.59-.56,0-1.03-.15-1.41-.46-.44-.33-.68-.79-.73-1.37h.55c.04.43.23.77.54,1.02.28.22.63.33,1.05.33.49,0,.89-.16,1.21-.48.31-.32.48-.73.48-1.22,0-.55-.15-.98-.45-1.29-.29-.3-.68-.44-1.18-.44-.32,0-.62.07-.88.22-.27.15-.48.37-.62.64h-.52l.32-3.51h3.64Z"/>
    <path class="cls-5" d="M140.44,13.86c.31.57.47,1.32.47,2.28s-.16,1.7-.47,2.28c-.38.7-.95,1.06-1.73,1.06s-1.35-.36-1.73-1.06c-.31-.58-.47-1.33-.47-2.28s.15-1.71.47-2.28c.38-.71.95-1.06,1.73-1.06s1.35.35,1.73,1.06ZM137.37,14.24c-.2.47-.3,1.11-.3,1.9s.1,1.42.3,1.9c.27.63.72.95,1.34.95s1.06-.32,1.34-.95c.2-.48.31-1.11.31-1.9s-.11-1.43-.31-1.9c-.28-.64-.73-.95-1.34-.95s-1.07.31-1.34.95Z"/>
    <path class="cls-5" d="M145.84,13.86c.31.57.47,1.32.47,2.28s-.16,1.7-.47,2.28c-.38.7-.95,1.06-1.73,1.06s-1.35-.36-1.73-1.06c-.31-.58-.47-1.33-.47-2.28s.15-1.71.47-2.28c.38-.71.95-1.06,1.73-1.06s1.35.35,1.73,1.06ZM142.77,14.24c-.2.47-.3,1.11-.3,1.9s.1,1.42.3,1.9c.27.63.72.95,1.34.95s1.06-.32,1.34-.95c.2-.48.31-1.11.31-1.9s-.11-1.43-.31-1.9c-.28-.64-.73-.95-1.34-.95s-1.07.31-1.34.95Z"/>
  </g>
  <g>
    <path class="cls-5" d="M162.25,12.93v.46l-2.43,5.97h-.59l2.45-5.91h-3.57v-.51h4.15Z"/>
    <path class="cls-5" d="M167.31,12.93v.5h-3.18l-.23,2.37h.03c.19-.23.42-.4.71-.51.26-.12.54-.17.84-.17.61,0,1.11.19,1.49.57.39.4.59.94.59,1.63,0,.63-.23,1.16-.66,1.58-.42.4-.95.59-1.58.59-.56,0-1.03-.15-1.41-.46-.44-.33-.68-.79-.73-1.37h.55c.04.43.23.77.54,1.02.28.22.63.33,1.05.33.49,0,.89-.16,1.21-.48.31-.32.48-.73.48-1.22,0-.55-.15-.98-.45-1.29-.29-.3-.68-.44-1.18-.44-.32,0-.62.07-.88.22-.27.15-.48.37-.62.64h-.52l.32-3.51h3.64Z"/>
    <path class="cls-5" d="M172.49,13.86c.31.57.47,1.32.47,2.28s-.16,1.7-.47,2.28c-.38.7-.95,1.06-1.73,1.06s-1.35-.36-1.73-1.06c-.31-.58-.47-1.33-.47-2.28s.15-1.71.47-2.28c.38-.71.95-1.06,1.73-1.06s1.35.35,1.73,1.06ZM169.42,14.24c-.2.47-.3,1.11-.3,1.9s.1,1.42.3,1.9c.27.63.72.95,1.34.95s1.06-.32,1.34-.95c.2-.48.31-1.11.31-1.9s-.11-1.43-.31-1.9c-.28-.64-.73-.95-1.34-.95s-1.07.31-1.34.95Z"/>
    <path class="cls-5" d="M177.89,13.86c.31.57.47,1.32.47,2.28s-.16,1.7-.47,2.28c-.38.7-.95,1.06-1.73,1.06s-1.35-.36-1.73-1.06c-.31-.58-.47-1.33-.47-2.28s.15-1.71.47-2.28c.38-.71.95-1.06,1.73-1.06s1.35.35,1.73,1.06ZM174.82,14.24c-.2.47-.3,1.11-.3,1.9s.1,1.42.3,1.9c.27.63.72.95,1.34.95s1.06-.32,1.34-.95c.2-.48.31-1.11.31-1.9s-.11-1.43-.31-1.9c-.28-.64-.73-.95-1.34-.95s-1.07.31-1.34.95Z"/>
  </g>
  <g>
    <path class="cls-5" d="M2.1,12.93v6.43h-.56v-5.74c-.41.45-.93.77-1.54.95v-.56c.3-.09.59-.23.88-.41.29-.19.55-.41.77-.67h.45Z"/>
    <path class="cls-5" d="M7.8,12.93v.5h-3.18l-.23,2.37h.03c.19-.23.42-.4.71-.51.26-.12.54-.17.84-.17.61,0,1.11.19,1.49.57.39.4.59.94.59,1.63,0,.63-.23,1.16-.66,1.58-.42.4-.95.59-1.58.59-.56,0-1.03-.15-1.41-.46-.44-.33-.68-.79-.73-1.37h.55c.04.43.23.77.54,1.02.28.22.63.33,1.05.33.49,0,.89-.16,1.21-.48.31-.32.48-.73.48-1.22,0-.55-.15-.98-.45-1.29-.29-.3-.68-.44-1.18-.44-.32,0-.62.07-.88.22-.27.15-.48.37-.62.64h-.52l.32-3.51h3.64Z"/>
    <path class="cls-5" d="M12.98,13.86c.31.57.47,1.32.47,2.28s-.16,1.7-.47,2.28c-.38.7-.95,1.06-1.73,1.06s-1.35-.36-1.73-1.06c-.31-.58-.47-1.33-.47-2.28s.15-1.71.47-2.28c.38-.71.95-1.06,1.73-1.06s1.35.35,1.73,1.06ZM9.91,14.24c-.2.47-.3,1.11-.3,1.9s.1,1.42.3,1.9c.27.63.72.95,1.34.95s1.06-.32,1.34-.95c.2-.48.31-1.11.31-1.9s-.11-1.43-.31-1.9c-.28-.64-.73-.95-1.34-.95s-1.07.31-1.34.95Z"/>
  </g>
</svg>